:SAMPLES-PER-SECOND 30
:FULLY-SPECIFIED
:DEGREES
646
root  0.943563 34.2755 -16.0374 -176.436 71.0175 -179.394
LeftUpLeg  -9.03707 12.4095 -2.29812
LeftLeg  13.27 8.3148 1.39786
LeftFoot  -0.945621 0.0081227 -0.0613583
LeftToes  -8.53808 7.65994e-007 1.12379e-007
Spine  3.60638 1.96887 -1.44139
Spine1  6.60232 4.77572 -3.60003
RightShoulder  0.089797 0.817646 -10.321
RightArm  9.74737 19.6414 89.7903
RightForeArm  140.084 49.3674 167.804
RightHand  2.58908 -10.0673 -28.3911
LeftShoulder1  -0.0103575 -2.78946 -1.41296
LeftArm  -12.8588 19.2527 -70.9692
LeftForeArm  26.3043 -35.9182 -7.33548
LeftHand  0.195538 3.09221 6.84963
HEad  17.4692 -9.43105 0.78197
RightUpLeg  -11.6655 -7.70004 -3.5031
RightLeg  9.25794 10.1475 0.988328
RightFoot  8.47536 -0.0829798 1.65415
RightToes  -32.4303 -0.161921 -0.269434
647
root  0.935739 34.2721 -16.097 -176.299 70.5778 -179.248
LeftUpLeg  -9.11242 12.2203 -2.35837
LeftLeg  13.4126 8.09556 1.38185
LeftFoot  -1.06601 0.0082276 -0.073675
LeftToes  -8.15547 7.65994e-007 1.12379e-007
Spine  3.66197 2.0579 -1.47917
Spine1  6.71196 4.95333 -3.66301
RightShoulder  0.0904935 0.86371 -10.5418
RightArm  10.4177 20.0232 90.473
RightForeArm  139.587 50.1607 167.46
RightHand  2.56337 -10.1941 -27.7753
LeftShoulder1  -0.00866133 -2.70993 -1.41299
LeftArm  -12.5638 19.4296 -70.7748
LeftForeArm  25.6954 -37.6652 -7.82206
LeftHand  0.164768 2.26495 7.92623
HEad  17.4539 -7.08118 0.612972
RightUpLeg  -11.571 -7.86099 -3.58387
RightLeg  9.25038 9.88787 0.961974
RightFoot  8.47596 -0.0807893 1.61589
RightToes  -32.6607 -0.163041 -0.27003
648
root  0.937166 34.2661 -16.1549 -176.093 70.0667 -179.023
LeftUpLeg  -9.16863 11.9602 -2.37346
LeftLeg  13.5486 7.85711 1.3605
LeftFoot  -1.15929 0.00805429 -0.0808984
LeftToes  -7.98521 7.65994e-007 1.12379e-007
Spine  3.70725 2.17458 -1.5289
Spine1  6.80167 5.18247 -3.74164
RightShoulder  0.0911033 0.753013 -10.6707
RightArm  11.2366 20.4057 91.1891
RightForeArm  139.48 51.0195 167.073
RightHand  2.52718 -10.1649 -27.4703
LeftShoulder1  -0.00688658 -2.63898 -1.6078
LeftArm  -12.176 20.28 -70.1634
LeftForeArm  24.9725 -41.6178 -9.01702
LeftHand  0.146457 1.73057 9.26698
HEad  17.4396 -4.76625 0.458892
RightUpLeg  -11.4776 -7.99575 -3.63816
RightLeg  9.30913 9.52563 0.936862
RightFoot  8.408 -0.0767941 1.5499
RightToes  -32.743 -0.164148 -0.270571
649
root  0.944243 34.2602 -16.2134 -175.858 69.5444 -178.764
LeftUpLeg  -9.22656 11.7695 -2.36601
LeftLeg  13.7186 7.54391 1.32952
LeftFoot  -1.3398 0.00852906 -0.0970453
LeftToes  -7.54296 7.65994e-007 1.12379e-007
Spine  3.75426 2.329 -1.57222
Spine1  6.89112 5.49146 -3.80817
RightShoulder  0.0916909 0.865341 -10.8347
RightArm  11.7122 20.7567 91.7514
RightForeArm  139.175 51.5461 166.829
RightHand  2.53538 -10.2672 -27.2884
LeftShoulder1  -0.00503187 -2.40457 -1.95001
LeftArm  -12.0314 21.5419 -69.3304
LeftForeArm  24.8943 -47.9964 -11.3096
LeftHand  0.0974287 1.00868 10.5914
HEad  17.4694 -2.58176 0.223205
RightUpLeg  -11.4312 -8.18777 -3.67453
RightLeg  9.51437 9.22435 0.940702
RightFoot  8.31346 -0.0733019 1.49198
RightToes  -32.987 -0.165205 -0.27116
650
root  0.961268 34.2541 -16.2712 -175.617 68.8934 -178.514
LeftUpLeg  -9.3015 11.6375 -2.3467
LeftLeg  13.9055 7.04546 1.26568
LeftFoot  -1.50834 0.00858577 -0.10517
LeftToes  -7.30359 7.65994e-007 1.12379e-007
Spine  3.79918 2.48732 -1.61062
Spine1  6.98052 5.79843 -3.85069
RightShoulder  0.0923171 0.949331 -11.1004
RightArm  12.141 21.0145 92.3379
RightForeArm  138.55 52.2105 166.513
RightHand  2.48243 -10.3806 -26.4456
LeftShoulder1  -0.00309584 -2.02045 -2.40095
LeftArm  -12.0213 23.0117 -68.35
LeftForeArm  26.7598 -57.1808 -15.9201
LeftHand  0.0403457 0.351473 12.4818
HEad  17.4927 -0.95278 -0.0212227
RightUpLeg  -11.3975 -8.45154 -3.70498
RightLeg  9.78473 8.86379 0.946319
RightFoot  8.13651 -0.0683979 1.4124
RightToes  -33.0706 -0.166176 -0.271882
